<?xml version="1.0" encoding="UTF-8"?>
<!DOCTYPE svg PUBLIC "-//W3C//DTD SVG 1.1//EN" "http://www.w3.org/Graphics/SVG/1.1/DTD/svg11.dtd">
<svg xmlns="http://www.w3.org/2000/svg" version="1.1" width="35px" height="36px" style="shape-rendering:geometricPrecision; text-rendering:geometricPrecision; image-rendering:optimizeQuality; fill-rule:evenodd; clip-rule:evenodd" xmlns:xlink="http://www.w3.org/1999/xlink">
<g><path style="opacity:0.905" fill="#00b800" d="M 22.5,-0.5 C 22.8333,-0.5 23.1667,-0.5 23.5,-0.5C 26.1582,0.839938 28.4915,2.67327 30.5,5C 28.5072,8.65081 26.5072,12.3175 24.5,16C 27.7271,18.1118 31.0604,19.9451 34.5,21.5C 34.5,22.5 34.5,23.5 34.5,24.5C 33.2547,26.6416 31.7547,28.6416 30,30.5C 26.8217,28.5775 23.4883,26.9108 20,25.5C 17.5847,28.6618 15.4181,31.9951 13.5,35.5C 12.8333,35.5 12.1667,35.5 11.5,35.5C 9.51927,33.8564 7.51927,32.1897 5.5,30.5C 7.16667,27.1667 8.83333,23.8333 10.5,20.5C 7.25934,17.7131 3.59268,15.7131 -0.5,14.5C -0.5,13.5 -0.5,12.5 -0.5,11.5C 0.745301,9.35841 2.2453,7.35841 4,5.5C 8.05384,7.10996 11.8872,9.10996 15.5,11.5C 17.845,7.47248 20.1783,3.47248 22.5,-0.5 Z"/></g>
</svg>
